<?xml version="1.0" standalone="no"?>
<!DOCTYPE svg PUBLIC "-//W3C//DTD SVG 20010904//EN"
 "http://www.w3.org/TR/2001/REC-SVG-20010904/DTD/svg10.dtd">
<svg version="1.0" xmlns="http://www.w3.org/2000/svg"
 width="640.000000pt" height="640.000000pt" viewBox="0 0 640.000000 640.000000"
 preserveAspectRatio="xMidYMid meet">
<metadata>
Created by potrace 1.14, written by Peter Selinger 2001-2017
</metadata>
<g transform="translate(0.000000,640.000000) scale(0.100000,-0.100000)"
fill="#000000" stroke="none">
<path d="M2308 5855 c-2 -1 -41 -5 -88 -9 -47 -3 -96 -8 -110 -11 -13 -2 -41
-7 -61 -10 -20 -3 -50 -10 -68 -15 -17 -5 -35 -9 -39 -10 -112 -16 -370 -125
-522 -219 -338 -210 -582 -502 -750 -896 -33 -77 -91 -295 -106 -395 -19 -135
-24 -336 -11 -451 3 -24 9 -69 12 -99 16 -133 86 -359 156 -506 43 -91 110
-207 121 -212 5 -2 8 -8 8 -14 0 -20 153 -208 237 -291 104 -102 189 -171 298
-243 85 -55 295 -164 317 -164 8 0 24 -7 36 -16 12 -8 22 -13 22 -10 0 3 15
-1 33 -9 73 -30 266 -72 420 -90 64 -8 270 -8 330 -1 159 20 168 21 252 41
217 51 399 130 592 256 l102 67 983 -982 c541 -541 999 -991 1018 -1001 57
-30 154 -29 215 1 131 65 193 230 129 346 -11 18 -460 475 -1000 1016 l-981
982 64 98 c35 53 88 147 118 207 125 257 184 510 187 800 2 282 -79 615 -207
845 -20 36 -38 73 -42 83 -3 9 -9 17 -14 17 -5 0 -9 6 -9 14 0 16 -136 200
-195 265 -161 176 -337 312 -539 415 -88 45 -245 110 -291 120 -5 2 -30 8 -55
15 -52 15 -60 17 -155 36 -98 19 -394 41 -407 30z m237 -468 c446 -50 845
-325 1060 -729 45 -85 99 -218 88 -218 -3 0 -1 -6 5 -12 28 -36 65 -277 65
-423 -1 -64 -11 -190 -18 -215 -2 -8 -7 -28 -10 -45 -3 -16 -7 -43 -10 -58
-24 -131 -148 -389 -245 -511 -99 -126 -268 -277 -370 -332 -19 -11 -37 -22
-40 -26 -3 -4 -46 -26 -95 -49 -225 -105 -458 -146 -710 -126 -44 4 -91 9
-105 12 -14 3 -41 8 -60 11 -109 19 -310 98 -438 173 -67 39 -176 126 -252
201 -220 218 -358 502 -396 815 -31 263 17 537 135 774 72 144 144 245 261
361 269 270 622 413 995 404 55 -2 118 -5 140 -7z"/>
</g>
</svg>
